<svg width="16" height="17" viewBox="0 0 16 17" fill="none" xmlns="http://www.w3.org/2000/svg">
<path d="M12.8538 0.152344C12.76 0.0586086 12.6329 0.00595093 12.5003 0.00595093C12.3677 0.00595093 12.2406 0.0586086 12.1468 0.152344L10.4998 1.79934L14.2068 5.50634L15.8538 3.86034C15.9004 3.8139 15.9373 3.75872 15.9625 3.69798C15.9877 3.63723 16.0007 3.57211 16.0007 3.50634C16.0007 3.44058 15.9877 3.37546 15.9625 3.31471C15.9373 3.25397 15.9004 3.19879 15.8538 3.15234L12.8538 0.152344ZM13.4998 6.21334L9.79281 2.50634L3.29281 9.00634H3.49981C3.63241 9.00634 3.75959 9.05902 3.85336 9.15279C3.94713 9.24656 3.99981 9.37374 3.99981 9.50634V10.0063H4.49981C4.63241 10.0063 4.75959 10.059 4.85336 10.1528C4.94713 10.2466 4.99981 10.3737 4.99981 10.5063V11.0063H5.49981C5.63241 11.0063 5.75959 11.059 5.85336 11.1528C5.94713 11.2466 5.99981 11.3737 5.99981 11.5063V12.0063H6.49981C6.63241 12.0063 6.75959 12.059 6.85336 12.1528C6.94713 12.2466 6.99981 12.3737 6.99981 12.5063V12.7133L13.4998 6.21334ZM6.03181 13.6813C6.01076 13.6254 5.99993 13.5661 5.99981 13.5063V13.0063H5.49981C5.3672 13.0063 5.24002 12.9537 5.14625 12.8599C5.05248 12.7661 4.99981 12.639 4.99981 12.5063V12.0063H4.49981C4.3672 12.0063 4.24002 11.9537 4.14625 11.8599C4.05248 11.7661 3.99981 11.639 3.99981 11.5063V11.0063H3.49981C3.3672 11.0063 3.24002 10.9537 3.14625 10.8599C3.05248 10.7661 2.99981 10.639 2.99981 10.5063V10.0063H2.49981C2.44003 10.0062 2.38075 9.99541 2.32481 9.97434L2.14581 10.1523C2.09816 10.2003 2.06073 10.2575 2.03581 10.3203L0.0358061 15.3203C-0.000564594 15.4112 -0.0094681 15.5107 0.0101994 15.6066C0.0298668 15.7025 0.0772403 15.7905 0.146447 15.8597C0.215653 15.9289 0.303649 15.9763 0.399526 15.996C0.495402 16.0156 0.594942 16.0067 0.685806 15.9703L5.68581 13.9703C5.74867 13.9454 5.80582 13.908 5.85381 13.8603L6.03181 13.6823V13.6813Z" fill="#373F41"/>
</svg>
