<svg width="12" height="13" viewBox="0 0 12 13" fill="none" xmlns="http://www.w3.org/2000/svg">
<path d="M6 6.99835C6.79565 6.99835 7.55871 6.68228 8.12132 6.11967C8.68393 5.55706 9 4.794 9 3.99835C9 3.2027 8.68393 2.43964 8.12132 1.87703C7.55871 1.31442 6.79565 0.998352 6 0.998352C5.20435 0.998352 4.44129 1.31442 3.87868 1.87703C3.31607 2.43964 3 3.2027 3 3.99835C3 4.794 3.31607 5.55706 3.87868 6.11967C4.44129 6.68228 5.20435 6.99835 6 6.99835ZM8 3.99835C8 4.52878 7.78929 5.03749 7.41421 5.41257C7.03914 5.78764 6.53043 5.99835 6 5.99835C5.46957 5.99835 4.96086 5.78764 4.58579 5.41257C4.21071 5.03749 4 4.52878 4 3.99835C4 3.46792 4.21071 2.95921 4.58579 2.58414C4.96086 2.20907 5.46957 1.99835 6 1.99835C6.53043 1.99835 7.03914 2.20907 7.41421 2.58414C7.78929 2.95921 8 3.46792 8 3.99835ZM12 11.9984C12 12.9984 11 12.9984 11 12.9984H1C1 12.9984 0 12.9984 0 11.9984C0 10.9984 1 7.99835 6 7.99835C11 7.99835 12 10.9984 12 11.9984ZM11 11.9944C10.999 11.7484 10.846 11.0084 10.168 10.3304C9.516 9.67835 8.289 8.99835 6 8.99835C3.71 8.99835 2.484 9.67835 1.832 10.3304C1.154 11.0084 1.002 11.7484 1 11.9944H11Z" fill="#373F41"/>
</svg>
