<svg xmlns="http://www.w3.org/2000/svg" width="16" height="17" viewBox="0 0 16 17" fill="none">
<path d="M5.5 9.51695C5.576 10.471 6.33 11.214 7.682 11.302V12.006H8.282V11.297C9.682 11.199 10.5 10.451 10.5 9.36495C10.5 8.37795 9.874 7.86895 8.755 7.60495L8.282 7.49295V5.57595C8.882 5.64395 9.264 5.97195 9.356 6.42595H10.408C10.332 5.50695 9.544 4.78795 8.282 4.70995V4.00595H7.682V4.72495C6.487 4.84195 5.672 5.56095 5.672 6.57795C5.672 7.47795 6.278 8.04995 7.285 8.28495L7.682 8.38295V10.417C7.067 10.324 6.66 9.98695 6.568 9.51695H5.5ZM7.677 7.35095C7.087 7.21395 6.767 6.93495 6.767 6.51495C6.767 6.04495 7.112 5.69295 7.682 5.58995V7.34995H7.677V7.35095ZM8.369 8.54395C9.086 8.70995 9.417 8.97895 9.417 9.45395C9.417 9.99595 9.005 10.368 8.282 10.436V8.52395L8.369 8.54395Z" fill="#373F41"/>
<path fill-rule="evenodd" clip-rule="evenodd" d="M8 15.006C9.85652 15.006 11.637 14.2685 12.9497 12.9557C14.2625 11.6429 15 9.86247 15 8.00595C15 6.14944 14.2625 4.36896 12.9497 3.0562C11.637 1.74345 9.85652 1.00595 8 1.00595C6.14348 1.00595 4.36301 1.74345 3.05025 3.0562C1.7375 4.36896 1 6.14944 1 8.00595C1 9.86247 1.7375 11.6429 3.05025 12.9557C4.36301 14.2685 6.14348 15.006 8 15.006ZM8 16.006C10.1217 16.006 12.1566 15.1631 13.6569 13.6628C15.1571 12.1625 16 10.1277 16 8.00595C16 5.88422 15.1571 3.84939 13.6569 2.3491C12.1566 0.848806 10.1217 0.00595093 8 0.00595093C5.87827 0.00595093 3.84344 0.848806 2.34315 2.3491C0.842855 3.84939 0 5.88422 0 8.00595C0 10.1277 0.842855 12.1625 2.34315 13.6628C3.84344 15.1631 5.87827 16.006 8 16.006Z" fill="#373F41"/>
<path fill-rule="evenodd" clip-rule="evenodd" d="M8 13.506C9.45869 13.506 10.8576 12.9265 11.8891 11.895C12.9205 10.8636 13.5 9.46464 13.5 8.00595C13.5 6.54726 12.9205 5.14831 11.8891 4.11686C10.8576 3.08541 9.45869 2.50595 8 2.50595C6.54131 2.50595 5.14236 3.08541 4.11091 4.11686C3.07946 5.14831 2.5 6.54726 2.5 8.00595C2.5 9.46464 3.07946 10.8636 4.11091 11.895C5.14236 12.9265 6.54131 13.506 8 13.506ZM8 14.006C8.78793 14.006 9.56815 13.8508 10.2961 13.5492C11.0241 13.2477 11.6855 12.8057 12.2426 12.2486C12.7998 11.6914 13.2417 11.03 13.5433 10.3021C13.8448 9.5741 14 8.79388 14 8.00595C14 7.21802 13.8448 6.4378 13.5433 5.70985C13.2417 4.9819 12.7998 4.32046 12.2426 3.76331C11.6855 3.20616 11.0241 2.7642 10.2961 2.46267C9.56815 2.16115 8.78793 2.00595 8 2.00595C6.4087 2.00595 4.88258 2.63809 3.75736 3.76331C2.63214 4.88853 2 6.41465 2 8.00595C2 9.59725 2.63214 11.1234 3.75736 12.2486C4.88258 13.3738 6.4087 14.006 8 14.006Z" fill="#373F41"/>
</svg>