<svg width="8" height="8" viewBox="0 0 8 8" fill="none" xmlns="http://www.w3.org/2000/svg">
<path d="M0.146894 0.147031C0.193339 0.100468 0.248515 0.0635246 0.30926 0.0383182C0.370005 0.0131117 0.435126 0.000137329 0.500894 0.000137329C0.566661 0.000137329 0.631782 0.0131117 0.692527 0.0383182C0.753272 0.0635246 0.808448 0.100468 0.854894 0.147031L3.50089 2.79403L6.14689 0.147031C6.19338 0.100543 6.24857 0.0636666 6.30931 0.0385075C6.37005 0.0133484 6.43515 0.000399113 6.50089 0.000399113C6.56664 0.000399113 6.63174 0.0133484 6.69248 0.0385075C6.75322 0.0636666 6.80841 0.100543 6.85489 0.147031C6.90138 0.193519 6.93826 0.248708 6.96342 0.309447C6.98858 0.370187 7.00152 0.435287 7.00152 0.501031C7.00152 0.566775 6.98858 0.631875 6.96342 0.692615C6.93826 0.753354 6.90138 0.808543 6.85489 0.855031L4.20789 3.50103L6.85489 6.14703C6.90138 6.19352 6.93826 6.24871 6.96342 6.30945C6.98858 6.37019 7.00152 6.43529 7.00152 6.50103C7.00152 6.56677 6.98858 6.63188 6.96342 6.69261C6.93826 6.75335 6.90138 6.80854 6.85489 6.85503C6.80841 6.90152 6.75322 6.9384 6.69248 6.96355C6.63174 6.98871 6.56664 7.00166 6.50089 7.00166C6.43515 7.00166 6.37005 6.98871 6.30931 6.96355C6.24857 6.9384 6.19338 6.90152 6.14689 6.85503L3.50089 4.20803L0.854894 6.85503C0.808406 6.90152 0.753217 6.9384 0.692477 6.96355C0.631738 6.98871 0.566637 7.00166 0.500894 7.00166C0.43515 7.00166 0.370049 6.98871 0.30931 6.96355C0.248571 6.9384 0.193381 6.90152 0.146894 6.85503C0.100406 6.80854 0.0635292 6.75335 0.0383701 6.69261C0.013211 6.63188 0.000261784 6.56677 0.000261784 6.50103C0.000261784 6.43529 0.013211 6.37019 0.0383701 6.30945C0.0635292 6.24871 0.100406 6.19352 0.146894 6.14703L2.79389 3.50103L0.146894 0.855031C0.10033 0.808585 0.0633873 0.75341 0.0381808 0.692665C0.0129744 0.63192 0 0.566798 0 0.501031C0 0.435264 0.0129744 0.370142 0.0381808 0.309397C0.0633873 0.248652 0.10033 0.193477 0.146894 0.147031Z" fill="#373F41"/>
</svg>
