<svg width="16" height="16" viewBox="0 0 16 16" fill="none" xmlns="http://www.w3.org/2000/svg">
<path d="M2.97 0.351648C3.06389 0.241883 3.18044 0.153759 3.31163 0.0933391C3.44283 0.0329195 3.58556 0.00163845 3.73 0.00164795H12.27C12.4144 0.00163845 12.5572 0.0329195 12.6884 0.0933391C12.8196 0.153759 12.9361 0.241883 13.03 0.351648L15.639 3.39565C15.8719 3.66748 16 4.01366 16 4.37165V4.62665C16.0001 5.12162 15.8455 5.60425 15.5578 6.00707C15.2702 6.40989 14.8639 6.71278 14.3957 6.87339C13.9275 7.03401 13.4208 7.04433 12.9465 6.90292C12.4721 6.7615 12.0538 6.47542 11.75 6.08465C11.5281 6.37042 11.2438 6.60162 10.9188 6.76057C10.5938 6.91951 10.2368 7.00198 9.875 7.00165C9.51321 7.00205 9.15612 6.91962 8.83112 6.76067C8.50611 6.60172 8.22181 6.37047 8 6.08465C7.77819 6.37047 7.49389 6.60172 7.16888 6.76067C6.84388 6.91962 6.48679 7.00205 6.125 7.00165C5.76321 7.00205 5.40612 6.91962 5.08112 6.76067C4.75611 6.60172 4.47181 6.37047 4.25 6.08465C3.94619 6.47542 3.52788 6.7615 3.05354 6.90292C2.57919 7.04433 2.07252 7.03401 1.60432 6.87339C1.13613 6.71278 0.729823 6.40989 0.442182 6.00707C0.154542 5.60425 -5.45986e-05 5.12162 1.44645e-08 4.62665V4.37165C1.26075e-05 4.01366 0.128057 3.66748 0.361 3.39565L2.971 0.350648L2.97 0.351648ZM4.75 4.62665C4.75 4.99132 4.89487 5.34106 5.15273 5.59892C5.41059 5.85678 5.76033 6.00165 6.125 6.00165C6.48967 6.00165 6.83941 5.85678 7.09727 5.59892C7.35513 5.34106 7.5 4.99132 7.5 4.62665C7.5 4.49404 7.55268 4.36686 7.64645 4.27309C7.74021 4.17933 7.86739 4.12665 8 4.12665C8.13261 4.12665 8.25979 4.17933 8.35355 4.27309C8.44732 4.36686 8.5 4.49404 8.5 4.62665C8.5 4.99132 8.64487 5.34106 8.90273 5.59892C9.16059 5.85678 9.51033 6.00165 9.875 6.00165C10.2397 6.00165 10.5894 5.85678 10.8473 5.59892C11.1051 5.34106 11.25 4.99132 11.25 4.62665C11.25 4.49404 11.3027 4.36686 11.3964 4.27309C11.4902 4.17933 11.6174 4.12665 11.75 4.12665C11.8826 4.12665 12.0098 4.17933 12.1036 4.27309C12.1973 4.36686 12.25 4.49404 12.25 4.62665C12.25 4.99132 12.3949 5.34106 12.6527 5.59892C12.9106 5.85678 13.2603 6.00165 13.625 6.00165C13.9897 6.00165 14.3394 5.85678 14.5973 5.59892C14.8551 5.34106 15 4.99132 15 4.62665V4.37165C15 4.25248 14.9575 4.13722 14.88 4.04665L12.27 1.00165H3.73L1.12 4.04665C1.04255 4.13722 0.999991 4.25248 1 4.37165V4.62665C1 4.99132 1.14487 5.34106 1.40273 5.59892C1.66059 5.85678 2.01033 6.00165 2.375 6.00165C2.73967 6.00165 3.08941 5.85678 3.34727 5.59892C3.60513 5.34106 3.75 4.99132 3.75 4.62665C3.75 4.49404 3.80268 4.36686 3.89645 4.27309C3.99021 4.17933 4.11739 4.12665 4.25 4.12665C4.38261 4.12665 4.50979 4.17933 4.60355 4.27309C4.69732 4.36686 4.75 4.49404 4.75 4.62665ZM1.5 7.50165C1.63261 7.50165 1.75979 7.55433 1.85355 7.64809C1.94732 7.74186 2 7.86904 2 8.00165V14.0016H14V8.00165C14 7.86904 14.0527 7.74186 14.1464 7.64809C14.2402 7.55433 14.3674 7.50165 14.5 7.50165C14.6326 7.50165 14.7598 7.55433 14.8536 7.64809C14.9473 7.74186 15 7.86904 15 8.00165V14.0016H15.5C15.6326 14.0016 15.7598 14.0543 15.8536 14.1481C15.9473 14.2419 16 14.369 16 14.5016C16 14.6343 15.9473 14.7614 15.8536 14.8552C15.7598 14.949 15.6326 15.0016 15.5 15.0016H0.5C0.367392 15.0016 0.240215 14.949 0.146447 14.8552C0.0526784 14.7614 1.44645e-08 14.6343 1.44645e-08 14.5016C1.44645e-08 14.369 0.0526784 14.2419 0.146447 14.1481C0.240215 14.0543 0.367392 14.0016 0.5 14.0016H1V8.00165C1 7.86904 1.05268 7.74186 1.14645 7.64809C1.24021 7.55433 1.36739 7.50165 1.5 7.50165ZM3.5 8.00165C3.63261 8.00165 3.75979 8.05433 3.85355 8.14809C3.94732 8.24186 4 8.36904 4 8.50165V12.0016H12V8.50165C12 8.36904 12.0527 8.24186 12.1464 8.14809C12.2402 8.05433 12.3674 8.00165 12.5 8.00165C12.6326 8.00165 12.7598 8.05433 12.8536 8.14809C12.9473 8.24186 13 8.36904 13 8.50165V12.0016C13 12.2669 12.8946 12.5212 12.7071 12.7088C12.5196 12.8963 12.2652 13.0016 12 13.0016H4C3.73478 13.0016 3.48043 12.8963 3.29289 12.7088C3.10536 12.5212 3 12.2669 3 12.0016V8.50165C3 8.36904 3.05268 8.24186 3.14645 8.14809C3.24021 8.05433 3.36739 8.00165 3.5 8.00165Z" fill="#373F41"/>
</svg>
