<svg width="16" height="13" viewBox="0 0 16 13" fill="none" xmlns="http://www.w3.org/2000/svg">
<path d="M2.18391e-09 1.50165C2.18391e-09 1.10382 0.158035 0.722292 0.43934 0.440988C0.720644 0.159683 1.10218 0.00164795 1.5 0.00164795H10.5C10.8978 0.00164795 11.2794 0.159683 11.5607 0.440988C11.842 0.722292 12 1.10382 12 1.50165V3.00165H13.02C13.2447 3.00185 13.4666 3.05255 13.6691 3.14999C13.8716 3.24744 14.0496 3.38915 14.19 3.56465L15.671 5.41465C15.8841 5.68083 16.0001 6.01168 16 6.35265V8.50165C16 8.89947 15.842 9.281 15.5607 9.56231C15.2794 9.84361 14.8978 10.0016 14.5 10.0016H14C14 10.5321 13.7893 11.0408 13.4142 11.4159C13.0391 11.7909 12.5304 12.0016 12 12.0016C11.4696 12.0016 10.9609 11.7909 10.5858 11.4159C10.2107 11.0408 10 10.5321 10 10.0016H5C5.00058 10.2682 4.94785 10.5322 4.84492 10.7782C4.742 11.0241 4.59094 11.2469 4.40065 11.4336C4.21035 11.6203 3.98465 11.7671 3.73682 11.8653C3.48899 11.9635 3.22402 12.0112 2.95749 12.0055C2.69097 11.9998 2.42827 11.941 2.18483 11.8323C1.94139 11.7236 1.72214 11.5674 1.53995 11.3728C1.35776 11.1782 1.21632 10.9491 1.12393 10.699C1.03155 10.449 0.990095 10.183 1.002 9.91665C0.709048 9.81354 0.455323 9.62204 0.275844 9.36859C0.0963656 9.11513 -1.6752e-05 8.81222 2.18391e-09 8.50165L2.18391e-09 1.50165ZM1.294 8.95765C1.4748 8.66164 1.72951 8.41777 2.0331 8.25001C2.33669 8.08225 2.6787 7.99637 3.02553 8.0008C3.37235 8.00524 3.71206 8.09985 4.01125 8.27533C4.31045 8.4508 4.55883 8.70111 4.732 9.00165H10.268C10.4439 8.69792 10.6963 8.44555 11 8.26965V1.50165C11 1.36904 10.9473 1.24186 10.8536 1.14809C10.7598 1.05433 10.6326 1.00165 10.5 1.00165H1.5C1.36739 1.00165 1.24021 1.05433 1.14645 1.14809C1.05268 1.24186 1 1.36904 1 1.50165V8.50165C0.999921 8.59789 1.02762 8.69211 1.07977 8.77299C1.13192 8.85388 1.20631 8.918 1.294 8.95765ZM12 8.00165C12.3511 8.00166 12.6959 8.09407 13 8.26961C13.304 8.44515 13.5565 8.69762 13.732 9.00165H14.5C14.6326 9.00165 14.7598 8.94897 14.8536 8.8552C14.9473 8.76143 15 8.63426 15 8.50165V6.35165C14.9998 6.23818 14.961 6.12815 14.89 6.03965L13.41 4.18965C13.3632 4.13109 13.3039 4.08379 13.2364 4.05125C13.1689 4.01871 13.0949 4.00175 13.02 4.00165H12V8.00165ZM3 9.00165C2.73478 9.00165 2.48043 9.10701 2.29289 9.29454C2.10536 9.48208 2 9.73643 2 10.0016C2 10.2669 2.10536 10.5212 2.29289 10.7088C2.48043 10.8963 2.73478 11.0016 3 11.0016C3.26522 11.0016 3.51957 10.8963 3.70711 10.7088C3.89464 10.5212 4 10.2669 4 10.0016C4 9.73643 3.89464 9.48208 3.70711 9.29454C3.51957 9.10701 3.26522 9.00165 3 9.00165ZM12 9.00165C11.7348 9.00165 11.4804 9.10701 11.2929 9.29454C11.1054 9.48208 11 9.73643 11 10.0016C11 10.2669 11.1054 10.5212 11.2929 10.7088C11.4804 10.8963 11.7348 11.0016 12 11.0016C12.2652 11.0016 12.5196 10.8963 12.7071 10.7088C12.8946 10.5212 13 10.2669 13 10.0016C13 9.73643 12.8946 9.48208 12.7071 9.29454C12.5196 9.10701 12.2652 9.00165 12 9.00165Z" fill="#373F41"/>
</svg>
