<svg width="12" height="15" viewBox="0 0 12 15" fill="none" xmlns="http://www.w3.org/2000/svg">
<path d="M0.0369999 2.22665C0.0125044 2.15416 6.77215e-06 2.07816 0 2.00165C0 0.896648 2.686 0.00164795 6 0.00164795C9.314 0.00164795 12 0.896648 12 2.00165C12 2.07816 11.9875 2.15417 11.963 2.22665L10.279 12.3306C10.2011 12.7978 9.95993 13.2222 9.59844 13.5282C9.23696 13.8342 8.77861 14.0019 8.305 14.0016H3.694C3.22056 14.0017 2.76245 13.8338 2.40118 13.5278C2.0399 13.2219 1.79888 12.7976 1.721 12.3306L0.0369999 2.22665ZM9.927 1.53665C8.966 1.21565 7.578 1.00165 6 1.00165C4.42 1.00165 3.032 1.21665 2.074 1.53565C1.597 1.69565 1.279 1.86265 1.099 2.00165C1.279 2.14165 1.597 2.30865 2.074 2.46765C3.032 2.78765 4.42 3.00165 6 3.00165C7.58 3.00165 8.967 2.78665 9.926 2.46765C10.403 2.30765 10.721 2.14065 10.901 2.00165C10.721 1.86165 10.403 1.69465 9.926 1.53565L9.927 1.53665Z" fill="#373F41"/>
</svg>
