<svg width="16" height="16" viewBox="0 0 16 16" fill="none" xmlns="http://www.w3.org/2000/svg">
<path d="M7.99942 4.75362C7.57315 4.75362 7.15105 4.83758 6.75723 5.0007C6.3634 5.16383 6.00557 5.40293 5.70415 5.70435C5.40273 6.00577 5.16363 6.3636 5.00051 6.75743C4.83738 7.15125 4.75342 7.57335 4.75342 7.99962C4.75342 8.42589 4.83738 8.84798 5.00051 9.24181C5.16363 9.63563 5.40273 9.99347 5.70415 10.2949C6.00557 10.5963 6.3634 10.8354 6.75723 10.9985C7.15105 11.1617 7.57315 11.2456 7.99942 11.2456C8.86031 11.2456 9.68594 10.9036 10.2947 10.2949C10.9034 9.68614 11.2454 8.86051 11.2454 7.99962C11.2454 7.13872 10.9034 6.31309 10.2947 5.70435C9.68594 5.0956 8.86031 4.75362 7.99942 4.75362ZM5.75342 7.99962C5.75342 7.40394 5.99005 6.83266 6.41126 6.41145C6.83246 5.99025 7.40374 5.75362 7.99942 5.75362C8.59509 5.75362 9.16637 5.99025 9.58758 6.41145C10.0088 6.83266 10.2454 7.40394 10.2454 7.99962C10.2454 8.59529 10.0088 9.16657 9.58758 9.58778C9.16637 10.009 8.59509 10.2456 7.99942 10.2456C7.40374 10.2456 6.83246 10.009 6.41126 9.58778C5.99005 9.16657 5.75342 8.59529 5.75342 7.99962Z" fill="#373F41"/>
<path d="M9.7955 1.34264C9.2685 -0.447363 6.7305 -0.447363 6.2035 1.34264L6.1095 1.66164C6.0727 1.78659 6.0084 1.90172 5.92132 1.9986C5.83424 2.09547 5.72658 2.17163 5.60624 2.22149C5.4859 2.27135 5.35593 2.29365 5.22585 2.28676C5.09578 2.27986 4.96889 2.24394 4.8545 2.18164L4.5625 2.02164C2.9225 1.12964 1.1295 2.92364 2.0225 4.56264L2.1815 4.85464C2.24381 4.96903 2.27972 5.09591 2.28662 5.22599C2.29351 5.35607 2.27121 5.48604 2.22135 5.60638C2.17149 5.72672 2.09533 5.83437 1.99846 5.92145C1.90158 6.00853 1.78645 6.07283 1.6615 6.10964L1.3425 6.20364C-0.4475 6.73064 -0.4475 9.26864 1.3425 9.79564L1.6615 9.88964C1.78645 9.92644 1.90158 9.99074 1.99846 10.0778C2.09533 10.1649 2.17149 10.2726 2.22135 10.3929C2.27121 10.5132 2.29351 10.6432 2.28662 10.7733C2.27972 10.9034 2.24381 11.0302 2.1815 11.1446L2.0215 11.4366C1.1295 13.0766 2.9225 14.8706 4.5625 13.9766L4.8545 13.8176C4.96889 13.7553 5.09578 13.7194 5.22585 13.7125C5.35593 13.7056 5.4859 13.7279 5.60624 13.7778C5.72658 13.8276 5.83424 13.9038 5.92132 14.0007C6.0084 14.0976 6.0727 14.2127 6.1095 14.3376L6.2035 14.6566C6.7305 16.4466 9.2685 16.4466 9.7955 14.6566L9.8895 14.3376C9.9263 14.2127 9.9906 14.0976 10.0777 14.0007C10.1648 13.9038 10.2724 13.8276 10.3928 13.7778C10.5131 13.7279 10.6431 13.7056 10.7731 13.7125C10.9032 13.7194 11.0301 13.7553 11.1445 13.8176L11.4365 13.9776C13.0765 14.8706 14.8705 13.0756 13.9765 11.4366L13.8175 11.1446C13.7552 11.0302 13.7193 10.9034 13.7124 10.7733C13.7055 10.6432 13.7278 10.5132 13.7776 10.3929C13.8275 10.2726 13.9037 10.1649 14.0005 10.0778C14.0974 9.99074 14.2125 9.92644 14.3375 9.88964L14.6565 9.79564C16.4465 9.26864 16.4465 6.73064 14.6565 6.20364L14.3375 6.10964C14.2125 6.07283 14.0974 6.00853 14.0005 5.92145C13.9037 5.83437 13.8275 5.72672 13.7776 5.60638C13.7278 5.48604 13.7055 5.35607 13.7124 5.22599C13.7193 5.09591 13.7552 4.96903 13.8175 4.85464L13.9775 4.56264C14.8705 2.92264 13.0755 1.12964 11.4365 2.02264L11.1445 2.18164C11.0301 2.24394 10.9032 2.27986 10.7731 2.28676C10.6431 2.29365 10.5131 2.27135 10.3928 2.22149C10.2724 2.17163 10.1648 2.09547 10.0777 1.9986C9.9906 1.90172 9.9263 1.78659 9.8895 1.66164L9.7955 1.34264ZM7.1625 1.62564C7.4085 0.790637 8.5905 0.790637 8.8365 1.62564L8.9305 1.94464C9.00952 2.21272 9.14754 2.45973 9.33443 2.66754C9.52132 2.87535 9.75235 3.0387 10.0106 3.14562C10.2688 3.25253 10.5477 3.3003 10.8268 3.28543C11.1059 3.27055 11.3781 3.1934 11.6235 3.05964L11.9145 2.89964C12.6785 2.48464 13.5145 3.31964 13.0985 4.08464L12.9395 4.37664C12.8059 4.62206 12.729 4.89426 12.7143 5.17329C12.6995 5.45232 12.7474 5.73111 12.8544 5.98922C12.9615 6.24734 13.1249 6.47824 13.3327 6.66501C13.5405 6.85179 13.7875 6.9897 14.0555 7.06864L14.3735 7.16264C15.2085 7.40864 15.2085 8.59064 14.3735 8.83664L14.0545 8.93064C13.7864 9.00966 13.5394 9.14767 13.3316 9.33456C13.1238 9.52145 12.9604 9.75248 12.8535 10.0107C12.7466 10.2689 12.6988 10.5478 12.7137 10.8269C12.7286 11.106 12.8057 11.3782 12.9395 11.6236L13.0995 11.9146C13.5145 12.6786 12.6795 13.5146 11.9145 13.0986L11.6235 12.9396C11.378 12.8059 11.1057 12.7288 10.8266 12.714C10.5474 12.6991 10.2685 12.747 10.0103 12.854C9.75204 12.961 9.52102 13.1245 9.33418 13.3324C9.14734 13.5404 9.00941 13.7875 8.9305 14.0556L8.8365 14.3736C8.5905 15.2086 7.4085 15.2086 7.1625 14.3736L7.0685 14.0546C6.98944 13.7867 6.85145 13.5398 6.66463 13.3321C6.47781 13.1244 6.24689 12.9611 5.98879 12.8542C5.73069 12.7473 5.45194 12.6995 5.17297 12.7143C4.894 12.7291 4.62186 12.8061 4.3765 12.9396L4.0845 13.0996C3.3205 13.5146 2.4845 12.6796 2.9005 11.9146L3.0595 11.6236C3.19345 11.3782 3.27075 11.1059 3.28573 10.8267C3.3007 10.5475 3.25297 10.2684 3.14604 10.0101C3.03911 9.75172 2.87569 9.52058 2.66778 9.33362C2.45986 9.14666 2.21272 9.00862 1.9445 8.92964L1.6255 8.83564C0.7905 8.58964 0.7905 7.40764 1.6255 7.16164L1.9445 7.06764C2.21231 6.98855 2.45904 6.85058 2.66664 6.66383C2.87425 6.47707 3.03746 6.24627 3.14435 5.98829C3.25124 5.73032 3.2991 5.45171 3.28442 5.17286C3.26973 4.894 3.19289 4.62196 3.0595 4.37664L2.8995 4.08464C2.4845 3.32064 3.3195 2.48464 4.0845 2.90064L4.3765 3.05964C4.62186 3.19321 4.894 3.27021 5.17297 3.28499C5.45194 3.29977 5.73069 3.25196 5.98879 3.14505C6.24689 3.03815 6.47781 2.87487 6.66463 2.66716C6.85145 2.45945 6.98944 2.21258 7.0685 1.94464L7.1625 1.62564Z" fill="#373F41"/>
</svg>
