<svg width="16" height="13" viewBox="0 0 16 13" fill="none" xmlns="http://www.w3.org/2000/svg">
<path d="M0 2.00595C0 1.47552 0.210714 0.96681 0.585786 0.591737C0.960859 0.216665 1.46957 0.00595093 2 0.00595093H14C14.5304 0.00595093 15.0391 0.216665 15.4142 0.591737C15.7893 0.96681 16 1.47552 16 2.00595V10.006C16 10.5364 15.7893 11.0451 15.4142 11.4202C15.0391 11.7952 14.5304 12.006 14 12.006H2C1.46957 12.006 0.960859 11.7952 0.585786 11.4202C0.210714 11.0451 0 10.5364 0 10.006V2.00595ZM2 1.00595C1.73478 1.00595 1.48043 1.11131 1.29289 1.29884C1.10536 1.48638 1 1.74073 1 2.00595V3.00595H15V2.00595C15 1.74073 14.8946 1.48638 14.7071 1.29884C14.5196 1.11131 14.2652 1.00595 14 1.00595H2ZM15 5.00595H1V10.006C1 10.2712 1.10536 10.5255 1.29289 10.7131C1.48043 10.9006 1.73478 11.006 2 11.006H14C14.2652 11.006 14.5196 10.9006 14.7071 10.7131C14.8946 10.5255 15 10.2712 15 10.006V5.00595Z" fill="#373F41"/>
<path d="M2 8.00595C2 7.74073 2.10536 7.48638 2.29289 7.29884C2.48043 7.11131 2.73478 7.00595 3 7.00595H4C4.26522 7.00595 4.51957 7.11131 4.70711 7.29884C4.89464 7.48638 5 7.74073 5 8.00595V9.00595C5 9.27117 4.89464 9.52552 4.70711 9.71306C4.51957 9.90059 4.26522 10.006 4 10.006H3C2.73478 10.006 2.48043 9.90059 2.29289 9.71306C2.10536 9.52552 2 9.27117 2 9.00595V8.00595Z" fill="#373F41"/>
</svg>
