<svg width="14" height="8" viewBox="0 0 14 8" fill="none" xmlns="http://www.w3.org/2000/svg">
<path d="M0.146894 1.14525C0.19334 1.09868 0.248515 1.06174 0.30926 1.03653C0.370005 1.01133 0.435127 0.998352 0.500894 0.998352C0.566661 0.998352 0.631782 1.01133 0.692528 1.03653C0.753273 1.06174 0.808448 1.09868 0.854894 1.14525L6.50089 6.79225L12.1469 1.14525C12.1934 1.09876 12.2486 1.06188 12.3093 1.03672C12.37 1.01156 12.4352 0.998614 12.5009 0.998614C12.5666 0.998614 12.6317 1.01156 12.6925 1.03672C12.7532 1.06188 12.8084 1.09876 12.8549 1.14525C12.9014 1.19173 12.9383 1.24692 12.9634 1.30766C12.9886 1.3684 13.0015 1.4335 13.0015 1.49925C13.0015 1.56499 12.9886 1.63009 12.9634 1.69083C12.9383 1.75157 12.9014 1.80676 12.8549 1.85325L6.85489 7.85325C6.80845 7.89981 6.75327 7.93675 6.69253 7.96196C6.63178 7.98716 6.56666 8.00014 6.50089 8.00014C6.43513 8.00014 6.37001 7.98716 6.30926 7.96196C6.24852 7.93675 6.19334 7.89981 6.14689 7.85325L0.146894 1.85325C0.100331 1.8068 0.0633878 1.75162 0.0381813 1.69088C0.0129749 1.63013 0 1.56501 0 1.49925C0 1.43348 0.0129749 1.36836 0.0381813 1.30761C0.0633878 1.24687 0.100331 1.19169 0.146894 1.14525Z" fill="#373F41"/>
</svg>
