<svg width="16" height="12" viewBox="0 0 16 12" fill="none" xmlns="http://www.w3.org/2000/svg">
<path d="M16 5.50165C16 5.50165 13 0.00164795 8 0.00164795C3 0.00164795 0 5.50165 0 5.50165C0 5.50165 3 11.0016 8 11.0016C13 11.0016 16 5.50165 16 5.50165ZM1.173 5.50165C1.65651 4.76677 2.21264 4.08233 2.833 3.45865C4.12 2.16965 5.88 1.00165 8 1.00165C10.12 1.00165 11.879 2.16965 13.168 3.45865C13.7884 4.08233 14.3445 4.76677 14.828 5.50165C14.77 5.58865 14.706 5.68465 14.633 5.78965C14.298 6.26965 13.803 6.90965 13.168 7.54465C11.879 8.83365 10.119 10.0016 8 10.0016C5.88 10.0016 4.121 8.83365 2.832 7.54465C2.21165 6.92096 1.65552 6.23652 1.172 5.50165H1.173Z" fill="#373F41"/>
<path d="M8 3.00165C7.33696 3.00165 6.70107 3.26504 6.23223 3.73388C5.76339 4.20272 5.5 4.83861 5.5 5.50165C5.5 6.16469 5.76339 6.80057 6.23223 7.26941C6.70107 7.73826 7.33696 8.00165 8 8.00165C8.66304 8.00165 9.29893 7.73826 9.76777 7.26941C10.2366 6.80057 10.5 6.16469 10.5 5.50165C10.5 4.83861 10.2366 4.20272 9.76777 3.73388C9.29893 3.26504 8.66304 3.00165 8 3.00165ZM4.5 5.50165C4.5 4.57339 4.86875 3.68315 5.52513 3.02677C6.1815 2.3704 7.07174 2.00165 8 2.00165C8.92826 2.00165 9.8185 2.3704 10.4749 3.02677C11.1313 3.68315 11.5 4.57339 11.5 5.50165C11.5 6.42991 11.1313 7.32014 10.4749 7.97652C9.8185 8.6329 8.92826 9.00165 8 9.00165C7.07174 9.00165 6.1815 8.6329 5.52513 7.97652C4.86875 7.32014 4.5 6.42991 4.5 5.50165Z" fill="#373F41"/>
</svg>
