<svg width="16" height="15" viewBox="0 0 16 15" fill="none" xmlns="http://www.w3.org/2000/svg">
<path d="M0 1.99835C0 1.73314 0.105357 1.47878 0.292893 1.29125C0.48043 1.10371 0.734784 0.998352 1 0.998352H15C15.2652 0.998352 15.5196 1.10371 15.7071 1.29125C15.8946 1.47878 16 1.73314 16 1.99835V3.99835C16 4.26357 15.8946 4.51792 15.7071 4.70546C15.5196 4.893 15.2652 4.99835 15 4.99835V12.4984C15 13.1614 14.7366 13.7973 14.2678 14.2661C13.7989 14.735 13.163 14.9984 12.5 14.9984H3.5C2.83696 14.9984 2.20107 14.735 1.73223 14.2661C1.26339 13.7973 1 13.1614 1 12.4984V4.99835C0.734784 4.99835 0.48043 4.893 0.292893 4.70546C0.105357 4.51792 0 4.26357 0 3.99835V1.99835ZM2 4.99835V12.4984C2 12.8962 2.15804 13.2777 2.43934 13.559C2.72064 13.8403 3.10218 13.9984 3.5 13.9984H12.5C12.8978 13.9984 13.2794 13.8403 13.5607 13.559C13.842 13.2777 14 12.8962 14 12.4984V4.99835H2ZM15 1.99835H1V3.99835H15V1.99835ZM5 7.49835C5 7.36574 5.05268 7.23857 5.14645 7.1448C5.24021 7.05103 5.36739 6.99835 5.5 6.99835H10.5C10.6326 6.99835 10.7598 7.05103 10.8536 7.1448C10.9473 7.23857 11 7.36574 11 7.49835C11 7.63096 10.9473 7.75814 10.8536 7.85191C10.7598 7.94567 10.6326 7.99835 10.5 7.99835H5.5C5.36739 7.99835 5.24021 7.94567 5.14645 7.85191C5.05268 7.75814 5 7.63096 5 7.49835Z" fill="#373F41"/>
</svg>
