<svg width="24" height="24" viewBox="0 0 24 24" fill="none" xmlns="http://www.w3.org/2000/svg">
<path fill-rule="evenodd" clip-rule="evenodd" d="M15.125 5.375C15.125 4.5462 14.7958 3.75134 14.2097 3.16529C13.6237 2.57924 12.8288 2.25 12 2.25C11.1712 2.25 10.3763 2.57924 9.79029 3.16529C9.20424 3.75134 8.875 4.5462 8.875 5.375V6H15.125V5.375ZM16.375 5.375V6H20.75V18.5C20.75 19.163 20.4866 19.7989 20.0178 20.2678C19.5489 20.7366 18.913 21 18.25 21H5.75C5.08696 21 4.45107 20.7366 3.98223 20.2678C3.51339 19.7989 3.25 19.163 3.25 18.5V6H7.625V5.375C7.625 4.21468 8.08594 3.10188 8.90641 2.28141C9.72688 1.46094 10.8397 1 12 1C13.1603 1 14.2731 1.46094 15.0936 2.28141C15.9141 3.10188 16.375 4.21468 16.375 5.375V5.375ZM12.625 11C12.625 10.8342 12.5592 10.6753 12.4419 10.5581C12.3247 10.4408 12.1658 10.375 12 10.375C11.8342 10.375 11.6753 10.4408 11.5581 10.5581C11.4408 10.6753 11.375 10.8342 11.375 11V12.875H9.5C9.33424 12.875 9.17527 12.9408 9.05806 13.0581C8.94085 13.1753 8.875 13.3342 8.875 13.5C8.875 13.6658 8.94085 13.8247 9.05806 13.9419C9.17527 14.0592 9.33424 14.125 9.5 14.125H11.375V16C11.375 16.1658 11.4408 16.3247 11.5581 16.4419C11.6753 16.5592 11.8342 16.625 12 16.625C12.1658 16.625 12.3247 16.5592 12.4419 16.4419C12.5592 16.3247 12.625 16.1658 12.625 16V14.125H14.5C14.6658 14.125 14.8247 14.0592 14.9419 13.9419C15.0592 13.8247 15.125 13.6658 15.125 13.5C15.125 13.3342 15.0592 13.1753 14.9419 13.0581C14.8247 12.9408 14.6658 12.875 14.5 12.875H12.625V11Z" fill="#373F41"/>
</svg>
