<svg width="8" height="8" viewBox="0 0 8 8" fill="none" xmlns="http://www.w3.org/2000/svg">
<path d="M4 0.000137329C4.13261 0.000137329 4.25979 0.0528158 4.35355 0.146584C4.44732 0.240352 4.5 0.367529 4.5 0.500137V3.50014H7.5C7.63261 3.50014 7.75979 3.55282 7.85355 3.64658C7.94732 3.74035 8 3.86753 8 4.00014C8 4.13275 7.94732 4.25992 7.85355 4.35369C7.75979 4.44746 7.63261 4.50014 7.5 4.50014H4.5V7.50014C4.5 7.63275 4.44732 7.75992 4.35355 7.85369C4.25979 7.94746 4.13261 8.00014 4 8.00014C3.86739 8.00014 3.74021 7.94746 3.64645 7.85369C3.55268 7.75992 3.5 7.63275 3.5 7.50014V4.50014H0.5C0.367392 4.50014 0.240215 4.44746 0.146447 4.35369C0.0526785 4.25992 0 4.13275 0 4.00014C0 3.86753 0.0526785 3.74035 0.146447 3.64658C0.240215 3.55282 0.367392 3.50014 0.5 3.50014H3.5V0.500137C3.5 0.367529 3.55268 0.240352 3.64645 0.146584C3.74021 0.0528158 3.86739 0.000137329 4 0.000137329Z" fill="#373F41"/>
</svg>
