<svg width="16" height="14" viewBox="0 0 16 14" fill="none" xmlns="http://www.w3.org/2000/svg">
<path d="M0.866614 2.49835C0.866614 2.10052 1.02465 1.71899 1.30595 1.43769C1.58726 1.15638 1.96879 0.998348 2.36661 0.998348H5.13061C6.08861 0.998348 6.89061 1.55835 7.44161 2.18235C7.85161 2.64635 8.34661 2.99835 8.86661 2.99835H13.3666C13.7644 2.99835 14.146 3.15638 14.4273 3.43769C14.7086 3.71899 14.8666 4.10052 14.8666 4.49835V5.13835C15.4366 5.40335 15.8066 6.01435 15.7226 6.68435L15.0826 11.8083C15.007 12.4134 14.7129 12.9699 14.2556 13.3733C13.7983 13.7766 13.2094 13.9989 12.5996 13.9983H3.13261C2.52321 13.9984 1.93476 13.7759 1.47789 13.3726C1.02102 12.9693 0.72718 12.413 0.651614 11.8083L0.0116142 6.68435C-0.0278128 6.36934 0.0337236 6.04994 0.187366 5.77212C0.341009 5.49431 0.578835 5.2724 0.866614 5.13835V2.49835ZM1.86661 4.99835H13.8666V4.49835C13.8666 4.36574 13.8139 4.23856 13.7202 4.14479C13.6264 4.05103 13.4992 3.99835 13.3666 3.99835H8.86661C7.90261 3.99835 7.15661 3.36935 6.69261 2.84435C6.24061 2.33235 5.68661 1.99835 5.13061 1.99835H2.36661C2.23401 1.99835 2.10683 2.05103 2.01306 2.14479C1.91929 2.23856 1.86661 2.36574 1.86661 2.49835V4.99835ZM1.49961 5.99835C1.42873 5.99837 1.35866 6.01346 1.29405 6.04262C1.22945 6.07178 1.17178 6.11435 1.12488 6.16749C1.07797 6.22064 1.0429 6.28315 1.022 6.35088C1.00109 6.41861 0.994825 6.49001 1.00361 6.56035L1.64361 11.6843C1.68896 12.0472 1.86532 12.3811 2.13953 12.623C2.41374 12.865 2.7669 12.9985 3.13261 12.9983H12.6006C12.9663 12.9985 13.3195 12.865 13.5937 12.623C13.8679 12.3811 14.0443 12.0472 14.0896 11.6843L14.7296 6.56035C14.7384 6.49001 14.7321 6.41861 14.7112 6.35088C14.6903 6.28315 14.6553 6.22064 14.6084 6.16749C14.5614 6.11435 14.5038 6.07178 14.4392 6.04262C14.3746 6.01346 14.3045 5.99837 14.2336 5.99835H1.49961Z" fill="#373F41"/>
</svg>
