<svg width="14" height="17" viewBox="0 0 14 17" fill="none" xmlns="http://www.w3.org/2000/svg">
<path d="M7 16.9992C7.53043 16.9992 8.03914 16.7885 8.41421 16.4134C8.78929 16.0384 9 15.5297 9 14.9992H5C5 15.5297 5.21071 16.0384 5.58579 16.4134C5.96086 16.7885 6.46957 16.9992 7 16.9992ZM7 2.91723L6.203 3.07823C5.29896 3.26243 4.48633 3.75333 3.90265 4.46785C3.31897 5.18237 3.0001 6.07661 3 6.99923C3 7.62723 2.866 9.19623 2.541 10.7412C2.381 11.5082 2.165 12.3072 1.878 12.9992H12.122C11.835 12.3072 11.62 11.5092 11.459 10.7412C11.134 9.19623 11 7.62723 11 6.99923C10.9997 6.07678 10.6807 5.18278 10.097 4.46846C9.51337 3.75415 8.70087 3.26339 7.797 3.07923L7 2.91623V2.91723ZM13.22 12.9992C13.443 13.4462 13.701 13.8002 14 13.9992H0C0.299 13.8002 0.557 13.4462 0.78 12.9992C1.68 11.1992 2 7.87923 2 6.99923C2 4.57923 3.72 2.55923 6.005 2.09823C5.99104 1.95918 6.00638 1.81875 6.05003 1.686C6.09368 1.55325 6.16467 1.43112 6.25842 1.32749C6.35217 1.22385 6.4666 1.14102 6.59433 1.08433C6.72206 1.02764 6.86026 0.998352 7 0.998352C7.13974 0.998352 7.27794 1.02764 7.40567 1.08433C7.5334 1.14102 7.64783 1.22385 7.74158 1.32749C7.83533 1.43112 7.90632 1.55325 7.94997 1.686C7.99362 1.81875 8.00896 1.95918 7.995 2.09823C9.12528 2.32813 10.1414 2.94159 10.8712 3.83473C11.6011 4.72787 11.9999 5.8458 12 6.99923C12 7.87923 12.32 11.1992 13.22 12.9992Z" fill="#373F41"/>
</svg>
