<svg width="16" height="13" viewBox="0 0 16 13" fill="none" xmlns="http://www.w3.org/2000/svg">
<path d="M6.00195 3.50616C6.00195 3.90399 5.84392 4.28552 5.56261 4.56682C5.28131 4.84813 4.89978 5.00616 4.50195 5.00616C4.10413 5.00616 3.7226 4.84813 3.44129 4.56682C3.15999 4.28552 3.00195 3.90399 3.00195 3.50616C3.00195 3.10834 3.15999 2.72681 3.44129 2.4455C3.7226 2.1642 4.10413 2.00616 4.50195 2.00616C4.89978 2.00616 5.28131 2.1642 5.56261 2.4455C5.84392 2.72681 6.00195 3.10834 6.00195 3.50616Z" fill="#373F41"/>
<path d="M1.5 0.00616455C1.10218 0.00616455 0.720644 0.1642 0.43934 0.445504C0.158035 0.726809 0 1.10834 0 1.50616L0 10.5062C0 10.904 0.158035 11.2855 0.43934 11.5668C0.720644 11.8481 1.10218 12.0062 1.5 12.0062H14.5C14.8978 12.0062 15.2794 11.8481 15.5607 11.5668C15.842 11.2855 16 10.904 16 10.5062V1.50616C16 1.10834 15.842 0.726809 15.5607 0.445504C15.2794 0.1642 14.8978 0.00616455 14.5 0.00616455H1.5ZM14.5 1.00616C14.6326 1.00616 14.7598 1.05884 14.8536 1.15261C14.9473 1.24638 15 1.37356 15 1.50616V7.50616L11.225 5.55916C11.1312 5.51219 11.025 5.49589 10.9215 5.51258C10.8179 5.52927 10.7223 5.5781 10.648 5.65216L6.938 9.36216L4.278 7.59016C4.18196 7.52622 4.06676 7.49747 3.95194 7.50877C3.83712 7.52007 3.72973 7.57073 3.648 7.65216L1.002 10.0062V10.5462C1.0008 10.5329 1.00014 10.5195 1 10.5062V1.50616C1 1.37356 1.05268 1.24638 1.14645 1.15261C1.24021 1.05884 1.36739 1.00616 1.5 1.00616H14.5Z" fill="#373F41"/>
</svg>
