<svg width="16" height="13" viewBox="0 0 16 13" fill="none" xmlns="http://www.w3.org/2000/svg">
<path d="M9.63937 2H13.6214C13.8993 1.99997 14.1742 2.05787 14.4285 2.16999C14.6828 2.28212 14.9109 2.44601 15.0983 2.65122C15.2858 2.85643 15.4284 3.09845 15.517 3.36184C15.6057 3.62524 15.6385 3.90422 15.6134 4.181L14.9764 11.181C14.9312 11.6779 14.7019 12.14 14.3336 12.4766C13.9652 12.8131 13.4843 12.9998 12.9854 13H2.63637C2.13741 12.9998 1.65654 12.8131 1.28817 12.4766C0.919796 12.14 0.690527 11.6779 0.645371 11.181L0.0083708 4.181C-0.034243 3.71778 0.0867648 3.25427 0.350371 2.871L0.311371 2C0.311371 1.46957 0.522085 0.960859 0.897157 0.585786C1.27223 0.210714 1.78094 0 2.31137 0H5.98337C6.51376 0.000113275 7.02239 0.210901 7.39737 0.586L8.22537 1.414C8.60036 1.7891 9.10898 1.99989 9.63937 2V2ZM1.31737 2.12C1.53137 2.042 1.76137 2 2.00137 2H7.39737L6.69037 1.293C6.50288 1.10545 6.24857 1.00006 5.98337 1H2.31137C2.04941 0.999953 1.7979 1.1027 1.6109 1.28614C1.4239 1.46959 1.31635 1.71909 1.31137 1.981L1.31737 2.12V2.12Z" fill="#373F41"/>
</svg>
